<svg xmlns="http://www.w3.org/2000/svg" width="180" height="180" viewBox="0.055 0 1023.891 1024"><path fill="#262626" fill-rule="evenodd" d="M346.476 0h331.048c117.288 0 150.2 0 200.692 16.978a216.509 216.509 0 0 1 128.8 128.806c16.98 50.494 16.98 83.4 16.98 200.692v331.048c0 117.288 0 150.2-16.98 200.692a216.5 216.5 0 0 1-128.8 128.8C827.722 1024 794.812 1024 677.524 1024H346.476c-117.288 0-150.2 0-200.692-16.98a216.509 216.509 0 0 1-128.806-128.8C0 827.722 0 794.812 0 677.524V346.476c0-117.288 0-150.2 16.978-200.692A216.516 216.516 0 0 1 145.784 16.978C196.278 0 229.188 0 346.476 0"/><path fill="#d4d4d4" fill-rule="evenodd" d="M308.961 252.923h-95.04v113.712H134v85.643h79.92v210.871q0 72.7 35.64 112.272T350.721 815q69.12 0 107.28-43.9t41.04-128.826H414.8q-7.93 46.067-21.6 66.572-13.686 20.511-39.6 20.511-21.6 0-33.12-17.632t-11.52-51.458V452.278H486.8v-85.643H308.961zm329.76 549.846h99.36V320.574H890v-93.56H486.8v93.56h151.92v482.2Z"/></svg>
